<?xml version="1.0" encoding="UTF-8" standalone="no"?>
<!DOCTYPE svg PUBLIC "-//W3C//DTD SVG 1.1//EN" "http://www.w3.org/Graphics/SVG/1.1/DTD/svg11.dtd">
<svg width="100%" height="100%" viewBox="0 0 60 60" version="1.1" xmlns="http://www.w3.org/2000/svg" xmlns:xlink="http://www.w3.org/1999/xlink" xml:space="preserve" xmlns:serif="http://www.serif.com/" style="fill-rule:evenodd;clip-rule:evenodd;stroke-linejoin:round;">
    <rect id="Artboard" x="0" y="0" width="60" height="60" style="fill:none;"/>
    <path vector-effect="non-scaling-stroke" d="M40.014,58.007L40.014,50.23C40.22,47.618 39.291,45.04 37.467,43.158C45.975,42.21 54.917,38.985 54.917,24.19C54.917,20.409 53.461,16.768 50.853,14.029C52.088,10.72 52,7.06 50.609,3.814C49.218,0.568 47.412,2.865 40.014,7.824C33.804,6.144 27.257,6.144 21.046,7.824C13.649,2.865 10.452,3.814 10.452,3.814C9.06,7.06 8.973,10.72 10.208,14.029C7.581,16.789 6.123,20.462 6.143,24.272C6.143,38.958 15.085,42.183 23.593,43.239C21.791,45.102 20.865,47.645 21.046,50.23L21.046,58.007" style="fill:none;fill-rule:nonzero;stroke:#235AFF;stroke-width:1.2px;"/>
    <path vector-effect="non-scaling-stroke" d="M21.046,52.588C12.917,55.224 6.143,52.588 2.079,44.459" style="fill:none;fill-rule:nonzero;stroke:#235AFF;stroke-width:1.2px;"/>
</svg>
