<?xml version="1.0" encoding="UTF-8" standalone="no"?>
<!DOCTYPE svg PUBLIC "-//W3C//DTD SVG 1.1//EN" "http://www.w3.org/Graphics/SVG/1.1/DTD/svg11.dtd">
<svg width="100%" height="100%" viewBox="0 0 60 60" version="1.1" xmlns="http://www.w3.org/2000/svg" xmlns:xlink="http://www.w3.org/1999/xlink" xml:space="preserve" xmlns:serif="http://www.serif.com/" style="fill-rule:evenodd;clip-rule:evenodd;">
    <path vector-effect="non-scaling-stroke" d="M30,6.49C43.255,6.49 54,17.015 54,30C54,34.281 52.831,38.299 50.789,41.755M13.2,13.211C8.59,17.627 5.992,23.685 6,30C6,42.985 16.745,53.51 30,53.51C34.37,53.51 38.472,52.365 42,50.365" style="fill:none;fill-rule:nonzero;stroke:black;stroke-width:1.2px;"/>
    <path vector-effect="non-scaling-stroke" d="M13.2,30C13.2,33.496 14.314,36.738 16.212,39.404M38.485,15.826C43.44,18.702 46.793,23.998 46.793,30C46.793,39.028 39.209,46.457 29.993,46.457C27.505,46.457 25.048,45.916 22.8,44.873" style="fill:none;fill-rule:nonzero;stroke:black;stroke-width:1.2px;"/>
    <path vector-effect="non-scaling-stroke" d="M30,39.404C35.266,39.404 39.6,35.159 39.6,30C39.6,24.841 35.266,20.596 30,20.596" style="fill:none;fill-rule:nonzero;stroke:black;stroke-width:1.2px;"/>
</svg>
