<?xml version="1.0" encoding="UTF-8" standalone="no"?>
<!DOCTYPE svg PUBLIC "-//W3C//DTD SVG 1.1//EN" "http://www.w3.org/Graphics/SVG/1.1/DTD/svg11.dtd">
<svg width="122px" height="31px" version="1.1" xmlns="http://www.w3.org/2000/svg" xmlns:xlink="http://www.w3.org/1999/xlink" xml:space="preserve" xmlns:serif="http://www.serif.com/" style="fill-rule:evenodd;clip-rule:evenodd;stroke-miterlimit:10;">
    <g>
        <g id="Artboard2">
            <rect x="0.018" y="0" width="120.991" height="30.812" style="fill:none;"/>
            <g>
                <clipPath id="_clip1">
                    <rect x="0.018" y="0" width="120.991" height="30.812"/>
                </clipPath>
                <g clip-path="url(#_clip1)">
                    <g>
                        <g>
                            <g id="Artboard21" serif:id="Artboard2">
                                <rect x="34.699" y="3.099" width="86.388" height="23.041" style="fill:none;"/>
                                <g>
                                    <clipPath id="_clip2">
                                        <rect x="34.699" y="3.099" width="86.388" height="23.041"/>
                                    </clipPath>
                                    <g clip-path="url(#_clip2)">
                                        <g>
                                            <g>
                                                <path d="M34.699,4.297L43.644,4.297C45.046,4.297 46.249,4.527 47.251,4.989C48.255,5.448 49.02,6.112 49.547,6.977C50.076,7.842 50.338,8.873 50.338,10.07C50.338,11.254 50.078,12.244 49.555,13.042C49.033,13.84 48.292,14.406 47.329,14.74L47.329,14.846C48.582,15.134 49.54,15.693 50.204,16.528C50.867,17.363 51.199,18.429 51.199,19.73C51.199,20.983 50.93,22.067 50.392,22.982C49.855,23.894 49.074,24.592 48.053,25.074C47.034,25.555 45.801,25.796 44.357,25.796L34.699,25.796L34.699,4.297ZM43.973,22.533C44.721,22.533 45.356,22.416 45.877,22.186C46.399,21.956 46.796,21.612 47.065,21.154C47.333,20.695 47.468,20.133 47.468,19.468C47.468,18.496 47.16,17.757 46.546,17.254C45.931,16.749 45.029,16.498 43.834,16.498L38.348,16.498L38.348,22.533L43.973,22.533ZM43.683,13.387C44.281,13.387 44.806,13.276 45.257,13.053C45.705,12.832 46.056,12.496 46.308,12.052C46.559,11.607 46.683,11.063 46.683,10.423C46.683,9.509 46.392,8.802 45.809,8.306C45.224,7.809 44.4,7.56 43.336,7.56L38.348,7.56L38.348,13.387L43.683,13.387Z" style="fill:rgb(35,90,255);fill-rule:nonzero;"/>
                                            </g>
                                            <g>
                                                <path d="M56.547,7.43C56.158,7.43 55.809,7.347 55.504,7.185C55.196,7.02 54.955,6.784 54.782,6.478C54.608,6.17 54.52,5.823 54.52,5.433L54.52,5.095C54.52,4.542 54.7,4.072 55.057,3.684C55.417,3.293 55.914,3.101 56.547,3.101L56.948,3.101C57.539,3.101 58.021,3.285 58.389,3.653C58.758,4.022 58.942,4.501 58.942,5.095L58.942,5.433C58.942,5.986 58.769,6.456 58.422,6.847C58.073,7.235 57.581,7.43 56.948,7.43L56.547,7.43Z" style="fill:rgb(35,90,255);fill-rule:nonzero;"/>
                                            </g>
                                            <g>
                                                <path d="M55.105,13.604L52.556,13.604L52.556,10.532C52.924,10.469 53.436,10.408 54.09,10.348C54.745,10.287 55.309,10.254 55.779,10.254C56.885,10.254 57.648,10.469 58.068,10.9C58.487,11.33 58.697,12.025 58.697,12.988L58.697,25.796L55.105,25.796L55.105,13.604Z" style="fill:rgb(35,90,255);fill-rule:nonzero;"/>
                                            </g>
                                            <g>
                                                <path d="M69.851,26.14C68.535,26.14 67.44,25.919 66.566,25.481C65.691,25.039 65.029,24.393 64.581,23.537C64.132,22.683 63.909,21.618 63.909,20.343L63.909,13.604L61.069,13.604L61.069,10.723C61.437,10.658 61.906,10.599 62.476,10.547C63.048,10.495 63.525,10.467 63.909,10.462L64.238,6.602L67.479,6.602L67.479,10.439L71.895,10.439L71.895,13.604L67.479,13.604L67.479,19.821C67.479,20.974 67.746,21.757 68.236,22.225C68.656,22.626 68.955,22.902 69.929,22.902C70.486,22.902 71.158,22.819 71.94,22.654L71.94,25.741C71.448,25.88 70.75,26.14 69.851,26.14Z" style="fill:rgb(35,90,255);fill-rule:nonzero;"/>
                                            </g>
                                            <g>
                                                <path d="M81.47,26.138C79.825,26.138 78.622,25.839 77.429,25.238C76.239,24.64 75.329,23.784 74.698,22.674C74.067,21.562 73.751,20.242 73.751,18.713L73.751,17.601C73.751,15.271 74.44,13.437 75.819,12.101C77.195,10.764 78.86,10.096 81.243,10.096C82.775,10.096 83.885,10.378 85.006,10.944C86.129,11.507 86.987,12.316 87.584,13.367C88.18,14.417 88.477,15.65 88.477,17.066C88.477,17.397 88.466,17.744 88.446,18.102C88.427,18.46 88.396,18.813 88.357,19.162L77.325,19.162L77.325,19.327C77.325,20.059 77.492,20.714 77.826,21.291C78.16,21.865 78.652,22.312 79.302,22.631C79.953,22.951 80.525,23.11 81.453,23.11C83.107,23.11 83.827,22.459 83.827,22.459L87.438,23.504C87.438,23.504 87.009,24.577 84.88,25.464C83.796,25.915 82.806,26.138 81.47,26.138ZM84.945,16.656L84.945,16.489C84.945,15.412 84.596,14.573 83.896,13.972C83.198,13.37 82.446,13.068 81.208,13.068C79.955,13.068 79.174,13.374 78.435,13.983C77.696,14.594 77.325,15.429 77.325,16.489L77.325,16.656L84.945,16.656Z" style="fill:rgb(35,90,255);fill-rule:nonzero;"/>
                                            </g>
                                            <g>
                                                <path d="M90.683,10.439L94.178,10.439C94.178,11.887 94.152,13.027 94.1,13.855L94.208,13.855C94.525,12.756 95.11,11.854 95.962,11.15C96.814,10.445 97.866,10.094 98.837,10.094C99.35,10.094 99.897,10.152 100.343,10.27L100.343,13.734C99.52,13.558 99.053,13.549 98.338,13.549C97.662,13.549 96.829,13.697 96.22,13.994C95.611,14.291 95.136,14.733 94.8,15.323C94.462,15.91 94.293,16.613 94.293,17.426L94.293,25.796L90.683,25.796L90.683,10.439Z" style="fill:rgb(35,90,255);fill-rule:nonzero;"/>
                                            </g>
                                            <g>
                                                <path d="M104.56,26.14C103.068,26.14 101.854,25.724 100.911,24.894C99.97,24.061 99.5,22.96 99.5,21.588C99.5,20.2 99.645,18.735 100.881,17.701C101.802,16.931 103.09,16.545 104.742,16.545L109.75,16.545L109.75,15.96C109.75,15.073 109.468,14.384 108.908,13.888C108.347,13.391 107.575,13.142 106.593,13.142C104.226,13.142 103.086,13.76 103.086,13.76L103.086,10.766C103.086,10.766 104.306,10.098 106.593,10.094C107.965,10.092 109.158,10.317 110.172,10.766C111.185,11.215 111.969,11.865 112.524,12.719C113.079,13.575 113.357,14.605 113.357,15.815L113.357,22.748L115.546,22.748L115.546,25.796C114.84,26.025 114.057,26.14 113.196,26.14C112.182,26.14 111.423,25.915 110.92,25.462C110.415,25.009 110.164,24.35 110.164,23.485C110.164,23.214 110.168,23.014 110.179,22.888C110.19,22.763 110.194,22.572 110.194,22.316L110.088,22.316C109.713,23.53 109.039,24.471 108.063,25.139C107.09,25.806 105.921,26.14 104.56,26.14ZM105.566,23.123C106.307,23.123 106.999,22.975 107.642,22.68C108.284,22.388 108.796,21.972 109.177,21.438C109.559,20.903 109.75,19.641 109.75,18.956L105.035,18.956C104.436,18.956 103.855,19.01 103.393,19.394C102.81,19.88 102.869,20.734 102.869,21.234C102.869,21.802 103.088,22.26 103.524,22.605C104.135,23.088 104.787,23.123 105.566,23.123Z" style="fill:rgb(35,90,255);fill-rule:nonzero;"/>
                                            </g>
                                            <g>
                                                <rect x="117.35" y="3.376" width="3.609" height="22.419" style="fill:rgb(35,90,255);"/>
                                            </g>
                                        </g>
                                    </g>
                                </g>
                            </g>
                        </g>
                    </g>
                    <g>
                        <g>
                            <g>
                                <clipPath id="_clip3">
                                    <rect x="-9.008" y="-6.811" width="44.249" height="44.249"/>
                                </clipPath>
                                <g clip-path="url(#_clip3)">
                                    <g>
                                        <g>
                                            <path d="M13.116,0.102L13.116,30.525" style="fill:none;fill-rule:nonzero;stroke:rgb(35,90,255);stroke-width:2px;"/>
                                        </g>
                                        <g>
                                            <ellipse cx="13.116" cy="15.314" rx="11.699" ry="11.699" style="fill:none;stroke:rgb(35,90,255);stroke-width:2px;stroke-linecap:round;stroke-linejoin:round;stroke-miterlimit:1.5;"/>
                                        </g>
                                    </g>
                                </g>
                            </g>
                        </g>
                    </g>
                </g>
            </g>
        </g>
    </g>
</svg>
