<?xml version="1.0" encoding="UTF-8" standalone="no"?><!DOCTYPE svg PUBLIC "-//W3C//DTD SVG 1.1//EN" "http://www.w3.org/Graphics/SVG/1.1/DTD/svg11.dtd"><svg width="107px" height="27px" version="1.1" xmlns="http://www.w3.org/2000/svg" xmlns:xlink="http://www.w3.org/1999/xlink" xml:space="preserve" xmlns:serif="http://www.serif.com/" style="fill-rule:evenodd;clip-rule:evenodd;stroke-miterlimit:10;"><rect id="Artboard1" x="0" y="0" width="106.869" height="26.973" style="fill:none;"/><clipPath id="_clip1"><rect x="0" y="0" width="106.869" height="26.973"/></clipPath><g clip-path="url(#_clip1)"><g><rect x="0.018" y="0" width="106.913" height="27.227" style="fill:none;"/><path d="M30.664,3.797L38.568,3.797C39.807,3.797 40.87,4 41.755,4.409C42.642,4.814 43.318,5.401 43.784,6.165C44.251,6.93 44.483,7.841 44.483,8.898C44.483,9.945 44.253,10.819 43.791,11.524C43.33,12.23 42.675,12.73 41.824,13.025L41.824,13.119C42.931,13.373 43.778,13.867 44.365,14.605C44.95,15.343 45.244,16.285 45.244,17.434C45.244,18.542 45.006,19.499 44.531,20.308C44.056,21.114 43.366,21.731 42.464,22.157C41.563,22.582 40.474,22.795 39.198,22.795L30.664,22.795L30.664,3.797ZM38.859,19.911C39.52,19.911 40.081,19.808 40.541,19.605C41.002,19.401 41.353,19.097 41.591,18.693C41.828,18.287 41.947,17.79 41.947,17.203C41.947,16.344 41.675,15.691 41.132,15.246C40.589,14.8 39.792,14.578 38.736,14.578L33.888,14.578L33.888,19.911L38.859,19.911ZM38.602,11.829C39.131,11.829 39.595,11.731 39.993,11.534C40.389,11.339 40.699,11.042 40.922,10.65C41.144,10.256 41.253,9.776 41.253,9.21C41.253,8.403 40.996,7.778 40.481,7.34C39.964,6.9 39.236,6.68 38.296,6.68L33.888,6.68L33.888,11.829L38.602,11.829Z" style="fill:white;fill-rule:nonzero;"/><path d="M49.97,6.565C49.626,6.565 49.317,6.492 49.048,6.349C48.776,6.203 48.563,5.995 48.41,5.724C48.256,5.452 48.178,5.145 48.178,4.801L48.178,4.502C48.178,4.014 48.337,3.598 48.653,3.255C48.971,2.91 49.41,2.74 49.97,2.74L50.324,2.74C50.846,2.74 51.272,2.903 51.597,3.228C51.923,3.554 52.086,3.977 52.086,4.502L52.086,4.801C52.086,5.289 51.933,5.705 51.626,6.05C51.318,6.393 50.883,6.565 50.324,6.565L49.97,6.565Z" style="fill:white;fill-rule:nonzero;"/><path d="M48.695,12.021L46.443,12.021L46.443,9.307C46.768,9.251 47.221,9.197 47.798,9.144C48.377,9.09 48.876,9.061 49.291,9.061C50.268,9.061 50.942,9.251 51.314,9.632C51.684,10.012 51.869,10.626 51.869,11.477L51.869,22.795L48.695,22.795L48.695,12.021Z" style="fill:white;fill-rule:nonzero;"/><path d="M61.726,23.098C60.563,23.098 59.595,22.903 58.823,22.516C58.05,22.126 57.465,21.555 57.069,20.798C56.672,20.044 56.475,19.103 56.475,17.976L56.475,12.021L53.965,12.021L53.965,9.475C54.291,9.418 54.705,9.366 55.209,9.32C55.714,9.274 56.136,9.249 56.475,9.245L56.766,5.834L59.63,5.834L59.63,9.224L63.532,9.224L63.532,12.021L59.63,12.021L59.63,17.515C59.63,18.534 59.865,19.225 60.298,19.639C60.67,19.993 60.934,20.237 61.794,20.237C62.287,20.237 62.88,20.164 63.572,20.018L63.572,22.746C63.137,22.869 62.52,23.098 61.726,23.098Z" style="fill:white;fill-rule:nonzero;"/><path d="M71.993,23.097C70.539,23.097 69.476,22.832 68.422,22.301C67.37,21.773 66.566,21.017 66.009,20.036C65.451,19.053 65.172,17.887 65.172,16.536L65.172,15.553C65.172,13.494 65.781,11.874 66.999,10.693C68.215,9.512 69.686,8.921 71.792,8.921C73.146,8.921 74.127,9.17 75.117,9.671C76.11,10.168 76.868,10.883 77.395,11.812C77.922,12.74 78.184,13.829 78.184,15.08C78.184,15.373 78.175,15.679 78.157,15.996C78.14,16.312 78.113,16.624 78.078,16.932L68.33,16.932L68.33,17.078C68.33,17.725 68.478,18.304 68.773,18.814C69.068,19.321 69.503,19.716 70.077,19.998C70.652,20.281 71.158,20.421 71.978,20.421C73.439,20.421 74.075,19.846 74.075,19.846L77.266,20.769C77.266,20.769 76.887,21.717 75.006,22.501C74.048,22.9 73.173,23.097 71.993,23.097ZM75.063,14.718L75.063,14.57C75.063,13.619 74.755,12.877 74.136,12.346C73.52,11.814 72.855,11.547 71.761,11.547C70.654,11.547 69.964,11.818 69.311,12.356C68.658,12.896 68.33,13.634 68.33,14.57L68.33,14.718L75.063,14.718Z" style="fill:white;fill-rule:nonzero;"/><path d="M80.134,9.224L83.222,9.224C83.222,10.504 83.199,11.511 83.153,12.243L83.249,12.243C83.529,11.272 84.046,10.475 84.798,9.853C85.551,9.23 86.481,8.92 87.339,8.92C87.792,8.92 88.276,8.971 88.67,9.075L88.67,12.136C87.942,11.98 87.53,11.973 86.898,11.973C86.301,11.973 85.565,12.103 85.026,12.366C84.488,12.628 84.069,13.019 83.772,13.54C83.473,14.059 83.324,14.68 83.324,15.398L83.324,22.795L80.134,22.795L80.134,9.224Z" style="fill:white;fill-rule:nonzero;"/><path d="M92.396,23.098C91.078,23.098 90.005,22.731 89.172,21.997C88.34,21.261 87.925,20.288 87.925,19.076C87.925,17.85 88.053,16.555 89.145,15.641C89.959,14.961 91.097,14.62 92.557,14.62L96.982,14.62L96.982,14.103C96.982,13.319 96.733,12.71 96.238,12.272C95.742,11.833 95.06,11.613 94.192,11.613C92.101,11.613 91.094,12.159 91.094,12.159L91.094,9.513C91.094,9.513 92.172,8.923 94.192,8.92C95.405,8.918 96.459,9.117 97.355,9.513C98.25,9.91 98.943,10.484 99.433,11.239C99.924,11.995 100.169,12.906 100.169,13.975L100.169,20.101L102.104,20.101L102.104,22.795C101.48,22.997 100.788,23.098 100.027,23.098C99.131,23.098 98.46,22.9 98.016,22.499C97.57,22.099 97.348,21.517 97.348,20.752C97.348,20.513 97.351,20.336 97.361,20.225C97.371,20.114 97.374,19.946 97.374,19.719L97.281,19.719C96.949,20.792 96.354,21.624 95.491,22.214C94.632,22.803 93.599,23.098 92.396,23.098ZM93.285,20.433C93.94,20.433 94.551,20.302 95.119,20.041C95.687,19.783 96.139,19.415 96.476,18.944C96.813,18.471 96.982,17.356 96.982,16.75L92.816,16.75C92.286,16.75 91.773,16.798 91.365,17.137C90.85,17.567 90.902,18.321 90.902,18.763C90.902,19.265 91.095,19.67 91.481,19.975C92.02,20.402 92.597,20.433 93.285,20.433Z" style="fill:white;fill-rule:nonzero;"/><rect x="103.698" y="2.983" width="3.189" height="19.81" style="fill:white;"/><path d="M11.592,0.09L11.592,26.973" style="fill:none;fill-rule:nonzero;stroke:white;stroke-width:1.77px;"/><circle cx="11.592" cy="13.532" r="10.338" style="fill:none;stroke:white;stroke-width:1.77px;stroke-linecap:round;stroke-linejoin:round;stroke-miterlimit:1.5;"/></g></g></svg>